<?xml version="1.0" standalone="no"?><!DOCTYPE svg PUBLIC "-//W3C//DTD SVG 1.1//EN" "http://www.w3.org/Graphics/SVG/1.1/DTD/svg11.dtd"><svg class="icon" width="200px" height="122.93px" viewBox="0 0 1666 1024" version="1.1" xmlns="http://www.w3.org/2000/svg"><path d="M1174.33488 277.136l-10.656 62.928 10.656 90.064v79.968l-10.656 61.584-5.328 73.632-11.968 13.872-107.872 12.912-30.64-22.768 11.888-103.088 16.08-71.632-16.064-66.272-11.888-73.632 11.888-57.568h154.56z m-745.664 0l10.656 62.928-10.656 90.064v79.968l10.656 61.584 5.328 73.632 11.968 13.872 107.872 12.912 30.624-22.768-11.872-103.088-16.08-71.632 16.08-66.272 11.872-73.632-11.872-57.568h-154.576z" fill="#1296db" /><path d="M1205.93488 0.016H348.86288c-34.32 0.096-62.08 28.096-62.048 62.592v594.864c0 34.48 27.744 62.48 62.048 62.592h46.608c3.248 9.632 8.64 18.4 15.776 25.616a15.2 15.2 0 0 0 6.96 4.128c77.712 20.32 97.008 45.568 101.6 58.784a30.896 30.896 0 0 1-3.872 27.168 15.072 15.072 0 0 0 2.496 20.928 14.72 14.72 0 0 0 20.912-2.416 61.2 61.2 0 0 0 8.8-54.88c-11.04-33.184-50.784-59.28-118.128-77.504-5.584-6.704-7.296-12.224-7.296-16.736 0-6.016 3.792-12.032 10.512-17.248a52.64 52.64 0 0 1 7.136-4.544l1.632-0.864c3.056-1.424 6.176-2.672 9.376-3.728a123.984 123.984 0 0 1 29.344-2.944c25.984 0 56.384 5.168 90.176 15.2 5.648 2.48 11.376 5.056 17.008 8.16 1.728 0.928 3.44 1.904 5.184 2.944 7.168 4.048 14.32 8.496 21.536 13.488 0.624 0.448 1.216 0.752 1.856 1.2 113.696 80.528 100.992 121.152 101.088 121.152a15.056 15.056 0 0 0 0.352 14.736c2.688 4.512 7.52 7.28 12.752 7.28a14.72 14.72 0 0 0 13.136-8.016c4.672-8.912 20.24-53.888-74.08-131.904h263.12c-94.336 78.096-78.816 123.008-74.144 131.904a15.536 15.536 0 0 0 13.648 8.288 14.704 14.704 0 0 0 13.056-21.472c-0.16-0.384-13.504-41.024 100.704-121.936a269.28 269.28 0 0 1 23.776-14.944l4.304-2.416c5.952-3.184 11.808-5.872 17.68-8.464 33.68-9.984 64-15.136 89.952-15.136a125.552 125.552 0 0 1 29.232 2.912c3.232 1.056 6.384 2.32 9.456 3.792 0.56 0.272 1.072 0.544 1.632 0.768 2.4 1.264 4.672 2.704 6.832 4.336l0.256 0.192c6.8 5.216 10.56 11.264 10.592 17.296v0.24c0 4.448-1.808 9.936-7.312 16.576-67.376 18.24-107.088 44.336-118.112 77.504a61.024 61.024 0 0 0 8.8 54.848 14.88 14.88 0 0 0 25.664-3.728 15.056 15.056 0 0 0-2.384-14.912 30.944 30.944 0 0 1-3.904-26.688c4.4-13.312 23.536-38.72 101.728-59.184a14.64 14.64 0 0 0 6.992-4.144 66.528 66.528 0 0 0 15.792-25.76c33.728-0.8 60.656-28.512 60.656-62.432V62.592a62.608 62.608 0 0 0-18.064-44.208A61.92 61.92 0 0 0 1205.80688 0l0.128 0.016zM573.75888 572.624c18.352 47.76 7.056 74.976-0.656 86.544-1.328-0.544-2.64-1.024-3.952-1.52a233.04 233.04 0 0 0-51.088-13.248c-1.392-0.16-2.8-0.368-4.208-0.56a204.608 204.608 0 0 0-22.128-1.392c-1.632 0-3.152 0.08-4.752 0.16-5.92 0.144-11.648 0.576-17.136 1.264-1.44 0.176-2.944 0.304-4.368 0.528-1.152 0.176-2.224 0.48-3.36 0.656 5.2-24.832 8.688-61.536-7.504-86.096-17.36-26.448-21.408-107.904-0.304-169.424 9.056-26.496-1.872-74.368-9.6-101.728h132.304c5.584 19.824 15.12 70.224-7.264 133.808l-1.632 4.448c-10.848 30.432-24.368 68.32 5.648 146.592v-0.032z m574.496-13.744c-16.24 24.592-12.72 61.264-7.552 86.128-1.152-0.224-2.224-0.512-3.408-0.656-1.184-0.144-1.968-0.208-2.992-0.352a170.192 170.192 0 0 0-19.344-1.44c-0.896 0-1.76-0.08-2.64-0.08-24.848-0.128-52.96 4.896-82.592 16.688-7.728-11.52-19.04-38.736-0.688-86.544 30.016-78.384 16.464-116.208 5.584-146.672l-1.632-4.368c-22.4-63.68-12.816-113.984-7.232-133.808h132.368c-7.76 27.36-18.704 75.216-9.6 101.728 21.136 61.552 17.056 143.04-0.272 169.376z m58.976 131.12a51.248 51.248 0 0 0-9.616-16.512c-0.624-0.688-1.36-1.344-1.984-2.016l-0.736-0.72a63.472 63.472 0 0 0-7.376-6.528 76.704 76.704 0 0 0-9.392-6.192c-1.008-0.592-1.872-1.296-2.96-1.856-0.32-0.176-0.736-0.256-1.072-0.448h-0.08c-5.648-19.2-14.032-60.608-1.04-80.192 24.736-37.552 26.432-129.104 3.616-195.808-6.16-17.968 3.424-62.144 12.528-91.936h5.824c8.032-0.272 14.416-6.896 14.416-14.976s-6.384-14.72-14.416-14.976H1002.33488a14.8 14.8 0 0 0-10.528 4.4 15.072 15.072 0 0 0-4.352 10.592 14.816 14.816 0 0 0 8.128 13.2c-6.688 26.736-13.856 79.472 9.424 145.632l1.632 4.544c9.744 27.072 20.656 57.776-5.344 125.632-21.12 54.96-10.048 90.816 1.184 110-10.32 5.52-20.32 11.6-29.968 18.208H630.51088c-0.944-0.672-1.904-1.12-2.896-1.76a293.008 293.008 0 0 0-24.368-14.896c-0.976-0.528-1.968-1.2-2.976-1.728 11.248-19.216 22.288-55.04 1.184-109.92-25.984-67.728-15.056-98.4-5.408-125.52l1.632-4.592c23.28-66.176 16.112-118.88 9.424-145.6a14.88 14.88 0 0 0-6.704-28.192H407.79088c-8.24 0-14.912 6.704-14.912 14.992s6.672 14.992 14.912 14.992h5.808c9.072 29.792 18.672 73.968 12.544 91.936-22.464 65.456-20.72 158.768 3.616 195.792 12.88 19.6 4.544 61.008-1.072 80.192-0.352 0.208-0.832 0.32-1.184 0.512-1.2 0.624-2.144 1.376-3.248 2.016-2.224 1.312-4.368 2.576-6.368 3.984a68.368 68.368 0 0 0-10.016 8.448c-0.288 0.304-0.624 0.592-0.912 0.912-0.624 0.624-1.36 1.264-1.936 1.904a62.016 62.016 0 0 0-4.816 6.736 49.552 49.552 0 0 0-4.784 9.792h-46.608a32.576 32.576 0 0 1-32.32-32.656V62.592c0-17.968 14.448-32.576 32.32-32.656h857.104c8.592 0.032 16.816 3.488 22.88 9.6s9.44 14.416 9.424 23.056v594.88a32.48 32.48 0 0 1-30.992 32.528z" fill="#90999F" /><path d="M883.99888 569.76c10.912 10.608-8.336 22.48-12.864 16.336a122.192 122.192 0 0 0-96.144-47.2c-37.104 0-69.648 16.736-92.352 43.392-6.064 6.096-21.12-7.856-12.864-17.968a134.88 134.88 0 0 1 105.232-49.488c43.856 0 84.032 22.08 109.024 54.8l-0.032 0.128z" fill="#90999F" /><path d="M338.76688 961.792c0 34.288 196.352 62.192 438.544 62.192s438.544-27.76 438.544-62.192-196.352-62.192-438.544-62.192-438.544 27.776-438.544 62.192z" fill="#EAEAEA" /><path d="M1475.34288 682.256c0 10.24 6.848 19.2 16.672 21.84a22.432 22.432 0 0 0 25.296-10.544 22.704 22.704 0 0 0-3.568-27.296 22.4 22.4 0 0 0-27.152-3.6c-6.96 4.048-11.264 11.52-11.248 19.6M19.05488 461.792H2.17488a16.832 16.832 0 1 0 31.488 8.464c3.808-6.656 2.704-15.056-2.688-20.48s-13.76-6.528-20.368-2.688c-5.216 3.024-8.432 8.64-8.432 14.704M1407.87088 540.944c0-21.856-17.616-39.568-39.36-39.568s-39.36 17.712-39.36 39.568 17.616 39.568 39.36 39.568a39.968 39.968 0 0 0 39.36-39.568z m-101.216 0c0-34.336 27.696-62.192 61.856-62.192s61.856 27.84 61.856 62.192-27.696 62.192-61.856 62.192c-34.032-0.32-61.552-27.984-61.856-62.192zM1452.84688 111.296c0-16-9.584-30.432-24.288-36.56-14.704-6.128-31.632-2.736-42.896 8.576s-14.624 28.336-8.528 43.12 20.448 24.432 36.352 24.432a39.968 39.968 0 0 0 39.36-39.568z m-56.24 0a16.832 16.832 0 1 1 28.8-12.016c4.832 4.848 6.272 12.144 3.664 18.496a16.896 16.896 0 0 1-15.6 10.48 17.344 17.344 0 0 1-16.88-16.96z m212.544 287.184h-19.12a12.416 12.416 0 0 0-11.936 12.432c0 6.704 5.264 12.192 11.936 12.432h19.12v19.216c0.24 6.688 5.712 12 12.368 12a12.4 12.4 0 0 0 12.368-12v-19.216h19.12a12.368 12.368 0 0 0 11.088-6.08 12.544 12.544 0 0 0 0-12.704 12.32 12.32 0 0 0-11.088-6.08h-19.12v-19.216a12.352 12.352 0 1 0-24.736 0v19.216zM238.33488 795.328h-33.744a11.296 11.296 0 0 0-11.232 11.296 10.736 10.736 0 0 0 3.088 8.192 10.56 10.56 0 0 0 8.144 3.104h33.744v33.92c0.016 6.24 5.04 11.28 11.232 11.296a10.592 10.592 0 0 0 11.232-11.296v-33.92h33.712a11.296 11.296 0 0 0 11.232-11.296 10.736 10.736 0 0 0-3.088-8.192 10.56 10.56 0 0 0-8.144-3.104h-33.712v-33.92a11.296 11.296 0 0 0-11.232-11.296 10.592 10.592 0 0 0-11.232 11.296v33.92z" fill="#FFCC00" /></svg>