<?xml version="1.0" standalone="no"?><!DOCTYPE svg PUBLIC "-//W3C//DTD SVG 1.1//EN" "http://www.w3.org/Graphics/SVG/1.1/DTD/svg11.dtd">
<svg class="icon" width="24px" height="24.00px" viewBox="0 0 1024 1024" version="1.1"
	xmlns="http://www.w3.org/2000/svg">
	<path fill="#8f8f8f" d="M874.666667 236.8v38.4a12.8 12.8 0 0 1-12.8 12.8H162.133333a12.8 12.8 0 0 1-12.8-12.8V236.8A12.8 12.8 0 0 1 162.133333 224h699.733334a12.8 12.8 0 0 1 12.8 12.8z" />
	<path fill="#8f8f8f" d="M277.333333 256h469.333334v149.333333a42.666667 42.666667 0 0 1-42.666667 42.666667H320a42.666667 42.666667 0 0 1-42.666667-42.666667V256z" />
	<path fill="#8f8f8f" d="M277.333333 533.333333m42.666667 0l384 0q42.666667 0 42.666667 42.666667l0 106.666667q0 42.666667-42.666667 42.666666l-384 0q-42.666667 0-42.666667-42.666666l0-106.666667q0-42.666667 42.666667-42.666667Z" />
</svg>