<?xml version="1.0" standalone="no"?><!DOCTYPE svg PUBLIC "-//W3C//DTD SVG 1.1//EN" "http://www.w3.org/Graphics/SVG/1.1/DTD/svg11.dtd">
<svg class="icon" width="24px" height="24.00px" viewBox="0 0 1024 1024" version="1.1"
	xmlns="http://www.w3.org/2000/svg">
	<path fill="#8f8f8f" d="M298.666667 277.333333h426.666666a42.666667 42.666667 0 0 1 42.666667 42.666667V426.666667a42.666667 42.666667 0 0 1-42.666667 42.666666H298.666667V277.333333zM298.666667 554.666667h298.666666a42.666667 42.666667 0 0 1 42.666667 42.666666v106.666667a42.666667 42.666667 0 0 1-42.666667 42.666667H298.666667V554.666667z" />
	<path fill="#8f8f8f" d="M330.666667 162.133333v699.733334a12.8 12.8 0 0 1-12.8 12.8h-38.4a12.8 12.8 0 0 1-12.8-12.8V162.133333a12.8 12.8 0 0 1 12.8-12.8h38.4a12.8 12.8 0 0 1 12.8 12.8z" />
</svg>