<?xml version="1.0" standalone="no"?><!DOCTYPE svg PUBLIC "-//W3C//DTD SVG 1.1//EN" "http://www.w3.org/Graphics/SVG/1.1/DTD/svg11.dtd">
<svg class="icon" width="24px" height="24.00px" viewBox="0 0 1024 1024" version="1.1"
	xmlns="http://www.w3.org/2000/svg">
	<path fill="#8f8f8f" d="M277.333333 234.666667m42.666667 0l384 0q42.666667 0 42.666667 42.666666l0 106.666667q0 42.666667-42.666667 42.666667l-384 0q-42.666667 0-42.666667-42.666667l0-106.666667q0-42.666667 42.666667-42.666666Z" />
	<path fill="#8f8f8f" d="M277.333333 597.333333m42.666667 0l384 0q42.666667 0 42.666667 42.666667l0 106.666667q0 42.666667-42.666667 42.666666l-384 0q-42.666667 0-42.666667-42.666666l0-106.666667q0-42.666667 42.666667-42.666667Z" />
	<path fill="#8f8f8f" d="M874.666667 492.8v38.4a12.8 12.8 0 0 1-12.8 12.8H162.133333a12.8 12.8 0 0 1-12.8-12.8v-38.4a12.8 12.8 0 0 1 12.8-12.8h699.733334a12.8 12.8 0 0 1 12.8 12.8z" />
</svg>